<?xml version="1.0" encoding="utf-8"?>
<!-- Generator: Adobe Illustrator 24.2.3, SVG Export Plug-In . SVG Version: 6.00 Build 0)  -->
<svg version="1.1" id="Calque_1" xmlns="http://www.w3.org/2000/svg" xmlns:xlink="http://www.w3.org/1999/xlink" x="0px" y="0px"
	 viewBox="0 0 312 182" style="enable-background:new 0 0 312 182;" xml:space="preserve">
<style type="text/css">
	.st0{fill:#01016B;}
</style>
<g>
	<path class="st0" d="M245.9,65.3c-3.4,0-6.4,0.2-9.3-0.1c-1-0.1-1.8-1.2-2.7-1.9c0.9-0.7,1.8-1.9,2.7-2c3.1-0.3,6.3-0.1,9.2-0.1
		c2.2-6.4,3.8-12.7,6.4-18.6c5.3-11.9,13.3-21.6,26.7-24c5.4-1,11.6-0.1,16.9,1.6c5.4,1.7,7.4,8,6.1,13.9c-1,4.3-4.9,7.4-9.9,7.8
		c-6.5,0.5-10.4-4.3-8.5-10.6c0.1-0.3,0.3-0.6,0.3-0.9c0.6-2.5,3.8-5.9-0.1-7.1c-2.4-0.7-6.1,1.4-8.7,3c-1.6,1-2.7,3.6-3,5.6
		c-1.4,9.5-2.6,19-3.9,29.3c5.2,0,9.3-0.1,13.4,0.1c1.1,0.1,2.2,1.2,3.3,1.9c-1,0.7-2,1.4-3.1,2.1c-0.2,0.2-0.7,0-1,0
		c-12.6,0.3-12.4,0.3-14,13.2c-2.5,20.4-6.2,40.5-14.9,59.3c-4.3,9.3-9.7,17.9-18.3,24c-6.4,4.6-13.5,7.2-21.5,6.3
		c-6.6-0.8-11.2-5.7-11.6-11.8c-0.3-5.7,3.2-10.9,8.8-11.5c2.8-0.3,6.6,0.6,8.4,2.5c1.6,1.6,1.1,5.4,1.1,8.2c0,2.4-0.4,4.8-0.7,7.2
		c2.7-0.6,6.2-0.2,7.8-1.8c3.5-3.5,7.4-7.7,8.7-12.3c2.8-10,4.4-20.4,5.7-30.8c2.1-16,3.5-32.1,5.2-48.1
		C246,68.4,245.9,67.3,245.9,65.3z"/>
	<path class="st0" d="M154.1,22.2c-3-0.1-5.4-0.3-9.6-0.5c1.9-1.8,2.8-3.3,3.7-3.3c7.8-0.2,15.5-0.1,23.7-0.1c0,28.5,0,56.4,0,83.7
		c2.6,2.7,7.9-1.4,8.8,4.6c-11.8,0-23,0-34.3,0c-0.2-3-0.2-3,7.6-4C154.1,76,154.1,49.4,154.1,22.2z"/>
	<path class="st0" d="M214.8,103.2c2.5,0,4.3-0.2,6,0.1c0.9,0.2,1.7,1.4,2.5,2.1c-0.8,0.5-1.7,1.5-2.5,1.5
		c-10.5,0.1-20.9,0.1-31.4,0.1c-0.4-3.2-0.4-3.2,7.5-4.3c0-26.7,0-53.4,0-80.4c-2.7-0.2-5.3-0.3-7.9-0.5c-0.2-0.4-0.4-0.7-0.7-1.1
		c1-0.8,1.9-2.3,2.9-2.3c7.6-0.2,15.3-0.1,23.5-0.1C214.8,46.8,214.8,74.8,214.8,103.2z"/>
	<path class="st0" d="M137.9,72.7c-13,0-26.1,0-40.8,0c1.1,7.2,1.3,14.1,3.4,20.3c2.9,8.6,13.8,11.6,22.7,6.3
		c3.8-2.3,6.5-6.5,9.8-9.7c0.8-0.8,1.9-1.1,2.9-1.7c0.1,1.3,0.6,2.7,0.1,3.7c-2.8,5.9-7.2,10.5-13.4,12.8
		c-11.6,4.3-22.8,3.3-32.6-4.3c-9.8-7.6-12.4-18.4-10.4-30.1c4.2-24.9,29.3-29.5,44-22.9C133.4,51.8,139.2,62,137.9,72.7z
		 M119.8,68.8c-0.6-7.2,1.2-14.8-5.7-19c-2.5-1.5-7.6-1.2-10.1,0.5c-6.4,4.3-5.6,11.6-6.1,18.6C105.3,68.8,112.2,68.8,119.8,68.8z"
		/>
	<path class="st0" d="M66.8,86.2c0.3,1.3,1.2,2.9,0.8,3.9c-2.2,5.7-5.6,10.6-11.1,13.6c-18,10-42.1-2.3-44.4-22.6
		C8.8,52.8,32.6,38.9,56.8,46.8c5.9,1.9,9.3,6.2,9.7,12.6c0.2,4-1.3,6.8-5.6,7.5c-4.9,0.8-8.8-1.3-9.8-5.4c-0.4-1.6-0.4-3.3-0.6-5
		c-0.3-3.6-1-7.1-5.4-7.9c-4.4-0.8-8.4,0.2-10.9,4.1c-1.2,1.8-2.2,3.9-2.3,6c-0.3,9.8-0.9,19.6,0,29.3c0.8,8.6,5.3,12.5,12.3,13.6
		c7,1.2,13.6-2,17.7-8.6c1.3-2.1,2.3-4.4,3.5-6.5C65.9,86.3,66.3,86.3,66.8,86.2z"/>
</g>
</svg>
